%TF.GenerationSoftware,KiCad,Pcbnew,9.0.0*%
%TF.CreationDate,2025-03-26T11:42:01-04:00*%
%TF.ProjectId,Lab7.kicad_pcb_Vias,4c616237-2e6b-4696-9361-645f7063625f,rev?*%
%TF.SameCoordinates,Original*%
%TF.FileFunction,Legend,Top*%
%TF.FilePolarity,Positive*%
%FSLAX46Y46*%
G04 Gerber Fmt 4.6, Leading zero omitted, Abs format (unit mm)*
G04 Created by KiCad (PCBNEW 9.0.0) date 2025-03-26 11:42:01*
%MOMM*%
%LPD*%
G01*
G04 APERTURE LIST*
%ADD10C,0.080000*%
%ADD11C,0.120000*%
G04 APERTURE END LIST*
D10*
X109119047Y-67565935D02*
X109119047Y-68213554D01*
X109119047Y-68213554D02*
X109142857Y-68289744D01*
X109142857Y-68289744D02*
X109166666Y-68327840D01*
X109166666Y-68327840D02*
X109214285Y-68365935D01*
X109214285Y-68365935D02*
X109309523Y-68365935D01*
X109309523Y-68365935D02*
X109357142Y-68327840D01*
X109357142Y-68327840D02*
X109380952Y-68289744D01*
X109380952Y-68289744D02*
X109404761Y-68213554D01*
X109404761Y-68213554D02*
X109404761Y-67565935D01*
X109904762Y-68365935D02*
X109619048Y-68365935D01*
X109761905Y-68365935D02*
X109761905Y-67565935D01*
X109761905Y-67565935D02*
X109714286Y-67680220D01*
X109714286Y-67680220D02*
X109666667Y-67756411D01*
X109666667Y-67756411D02*
X109619048Y-67794506D01*
X104333333Y-68065935D02*
X104333333Y-68637363D01*
X104333333Y-68637363D02*
X104309524Y-68751649D01*
X104309524Y-68751649D02*
X104261905Y-68827840D01*
X104261905Y-68827840D02*
X104190476Y-68865935D01*
X104190476Y-68865935D02*
X104142857Y-68865935D01*
X104833333Y-68865935D02*
X104547619Y-68865935D01*
X104690476Y-68865935D02*
X104690476Y-68065935D01*
X104690476Y-68065935D02*
X104642857Y-68180220D01*
X104642857Y-68180220D02*
X104595238Y-68256411D01*
X104595238Y-68256411D02*
X104547619Y-68294506D01*
D11*
%TO.C,U1*%
X104440000Y-63500000D02*
X104440000Y-61550000D01*
X104440000Y-63500000D02*
X104440000Y-65450000D01*
X109560000Y-63500000D02*
X109560000Y-61550000D01*
X109560000Y-63500000D02*
X109560000Y-65450000D01*
X104535000Y-66200000D02*
X104205000Y-66440000D01*
X104205000Y-65960000D01*
X104535000Y-66200000D01*
G36*
X104535000Y-66200000D02*
G01*
X104205000Y-66440000D01*
X104205000Y-65960000D01*
X104535000Y-66200000D01*
G37*
%TO.C,J1*%
X100200000Y-60200000D02*
X100200000Y-68300000D01*
X100200000Y-68300000D02*
X103800000Y-68300000D01*
X100350000Y-62000000D02*
X100650000Y-62000000D01*
X100350000Y-62750000D02*
X100350000Y-62000000D01*
X100350000Y-65750000D02*
X100650000Y-65750000D01*
X100350000Y-66500000D02*
X100350000Y-65750000D01*
X100650000Y-60500000D02*
X100650000Y-60800000D01*
X100650000Y-60800000D02*
X100200000Y-60800000D01*
X100650000Y-62000000D02*
X100650000Y-60800000D01*
X100650000Y-62750000D02*
X100350000Y-62750000D01*
X100650000Y-65750000D02*
X100650000Y-62750000D01*
X100650000Y-66500000D02*
X100350000Y-66500000D01*
X100650000Y-67700000D02*
X100200000Y-67700000D01*
X100650000Y-67700000D02*
X100650000Y-66500000D01*
X100650000Y-68000000D02*
X100650000Y-67700000D01*
X101750000Y-60200000D02*
X101750000Y-60500000D01*
X101750000Y-60500000D02*
X100650000Y-60500000D01*
X101750000Y-68000000D02*
X100650000Y-68000000D01*
X101750000Y-68300000D02*
X101750000Y-68000000D01*
X102200000Y-68610000D02*
X104110000Y-68610000D01*
X102500000Y-60500000D02*
X102500000Y-60200000D01*
X102500000Y-68000000D02*
X103500000Y-68000000D01*
X102500000Y-68300000D02*
X102500000Y-68000000D01*
X103500000Y-60500000D02*
X102500000Y-60500000D01*
X103500000Y-68000000D02*
X103500000Y-60500000D01*
X103800000Y-60200000D02*
X100200000Y-60200000D01*
X103800000Y-68300000D02*
X103800000Y-60200000D01*
X104110000Y-68610000D02*
X104110000Y-66700000D01*
%TD*%
M02*
